<svg xmlns="http://www.w3.org/2000/svg" xmlns:xlink="http://www.w3.org/1999/xlink" width="1024" zoomAndPan="magnify" viewBox="0 0 768 576" height="768" preserveAspectRatio="xMidYMid meet" version="1.0"><defs><clipPath id="7c20a03787"><path d="M 246.242188 172.800781 L 447 172.800781 L 447 403.050781 L 246.242188 403.050781 Z M 246.242188 172.800781 " clip-rule="nonzero"/></clipPath></defs><path fill="#e81e25" d="M 314.9375 390.425781 C 310.054688 366.445312 301.441406 346.492188 291.015625 327.996094 C 283.28125 314.277344 274.320312 301.617188 266.027344 288.3125 C 263.261719 283.871094 260.871094 279.179688 258.214844 274.570312 C 252.894531 265.355469 248.582031 254.667969 248.859375 240.808594 C 249.125 227.265625 253.039062 216.402344 258.6875 207.523438 C 267.972656 192.914062 283.527344 180.9375 304.398438 177.789062 C 321.460938 175.214844 337.460938 179.5625 348.804688 186.199219 C 358.078125 191.621094 365.257812 198.867188 370.714844 207.402344 C 376.410156 216.3125 380.332031 226.839844 380.660156 240.574219 C 380.832031 247.605469 379.679688 254.121094 378.054688 259.527344 C 376.414062 264.996094 373.773438 269.570312 371.425781 274.453125 C 366.839844 283.984375 361.089844 292.71875 355.320312 301.460938 C 338.132812 327.496094 322 354.046875 314.9375 390.425781 Z M 314.9375 390.425781 " fill-opacity="1" fill-rule="evenodd"/><g clip-path="url(#7c20a03787)"><path stroke-linecap="butt" transform="matrix(0.125967, 0, 0, 0.126008, 222.862726, 158.622114)" fill="none" stroke-linejoin="miter" d="M 730.945022 1839.59777 C 692.182315 1649.28837 623.8049 1490.940037 541.038768 1344.154728 C 479.63864 1235.282499 408.50132 1134.811288 342.666739 1029.225066 C 320.711541 993.977992 301.73332 956.746914 280.646407 920.166837 C 238.410562 847.037683 204.175339 762.221505 206.377061 652.233273 C 208.485752 544.756047 239.557938 458.544866 284.398637 388.081718 C 358.109801 272.141474 481.59228 177.095274 647.279595 152.109222 C 782.731999 131.680179 909.749637 166.183251 999.803158 218.852362 C 1073.421291 261.880452 1130.417975 319.385573 1173.739177 387.120716 C 1218.951998 457.831864 1250.086204 541.37704 1252.691058 650.373269 C 1254.055506 706.173387 1244.907507 757.881495 1232.007278 800.785586 C 1218.983008 844.185677 1198.020136 880.486753 1179.383027 919.236835 C 1142.977092 994.876994 1097.330129 1064.19314 1051.528114 1133.571285 C 915.083385 1340.18672 787.011401 1550.894163 730.945022 1839.59777 Z M 730.945022 1839.59777 " stroke="#000000" stroke-width="37" stroke-opacity="1" stroke-miterlimit="10"/></g><path fill="#000000" d="M 314.992188 402.371094 C 331.570312 387.140625 341.609375 372.636719 348.894531 358.207031 C 354.296875 347.503906 357.78125 336.890625 362.367188 326.195312 C 363.898438 322.621094 365.957031 319.066406 367.722656 315.445312 C 371.253906 308.207031 376.875 300.558594 389.015625 293.003906 C 400.875 285.621094 413.449219 281.1875 425.746094 278.550781 C 445.96875 274.210938 469.113281 273.851562 489.054688 280.515625 C 505.359375 285.964844 514.835938 294.8125 518.503906 303.050781 C 521.5 309.785156 521.203125 316.683594 518.371094 323.605469 C 515.417969 330.828125 509.609375 338.230469 498.078125 345.957031 C 492.171875 349.914062 485.621094 353.054688 479.636719 355.390625 C 473.578125 357.753906 467.464844 359.21875 461.328125 360.976562 C 449.347656 364.402344 437.089844 366.917969 424.8125 369.429688 C 388.242188 376.90625 352.097656 385.09375 314.992188 402.371094 Z M 314.992188 402.371094 " fill-opacity="0.0863" fill-rule="evenodd"/><path fill="#000000" d="M 337.855469 240.660156 C 337.855469 239.902344 337.816406 239.148438 337.742188 238.394531 C 337.667969 237.640625 337.558594 236.894531 337.410156 236.152344 C 337.265625 235.410156 337.082031 234.675781 336.859375 233.953125 C 336.640625 233.230469 336.386719 232.519531 336.097656 231.820312 C 335.808594 231.121094 335.484375 230.4375 335.128906 229.769531 C 334.773438 229.101562 334.382812 228.453125 333.964844 227.824219 C 333.542969 227.195312 333.09375 226.589844 332.613281 226.003906 C 332.132812 225.417969 331.625 224.859375 331.089844 224.324219 C 330.554688 223.789062 329.996094 223.28125 329.410156 222.800781 C 328.828125 222.320312 328.21875 221.871094 327.589844 221.453125 C 326.960938 221.03125 326.316406 220.640625 325.648438 220.285156 C 324.980469 219.929688 324.296875 219.605469 323.597656 219.316406 C 322.898438 219.027344 322.1875 218.773438 321.464844 218.550781 C 320.742188 218.332031 320.007812 218.148438 319.265625 218 C 318.523438 217.855469 317.777344 217.742188 317.023438 217.667969 C 316.273438 217.59375 315.515625 217.558594 314.761719 217.558594 C 314.003906 217.558594 313.25 217.59375 312.496094 217.667969 C 311.746094 217.742188 310.996094 217.855469 310.253906 218 C 309.515625 218.148438 308.78125 218.332031 308.058594 218.550781 C 307.332031 218.773438 306.621094 219.027344 305.921875 219.316406 C 305.226562 219.605469 304.542969 219.929688 303.875 220.285156 C 303.207031 220.640625 302.558594 221.03125 301.929688 221.453125 C 301.300781 221.871094 300.695312 222.320312 300.109375 222.800781 C 299.527344 223.28125 298.964844 223.789062 298.429688 224.324219 C 297.894531 224.859375 297.390625 225.417969 296.910156 226.003906 C 296.429688 226.589844 295.980469 227.195312 295.558594 227.824219 C 295.140625 228.453125 294.75 229.101562 294.394531 229.769531 C 294.039062 230.4375 293.714844 231.121094 293.425781 231.820312 C 293.136719 232.519531 292.882812 233.230469 292.660156 233.953125 C 292.441406 234.675781 292.257812 235.410156 292.109375 236.152344 C 291.964844 236.894531 291.851562 237.640625 291.777344 238.394531 C 291.703125 239.148438 291.667969 239.902344 291.667969 240.660156 C 291.667969 241.417969 291.703125 242.171875 291.777344 242.925781 C 291.851562 243.675781 291.964844 244.425781 292.109375 245.167969 C 292.257812 245.910156 292.441406 246.640625 292.660156 247.367188 C 292.882812 248.089844 293.136719 248.800781 293.425781 249.5 C 293.714844 250.199219 294.039062 250.882812 294.394531 251.550781 C 294.75 252.21875 295.140625 252.863281 295.558594 253.492188 C 295.980469 254.125 296.429688 254.730469 296.910156 255.316406 C 297.390625 255.898438 297.894531 256.460938 298.429688 256.996094 C 298.964844 257.53125 299.527344 258.039062 300.109375 258.515625 C 300.695312 258.996094 301.300781 259.449219 301.929688 259.867188 C 302.558594 260.289062 303.207031 260.675781 303.875 261.035156 C 304.542969 261.390625 305.226562 261.714844 305.921875 262.003906 C 306.621094 262.292969 307.332031 262.546875 308.058594 262.765625 C 308.78125 262.984375 309.515625 263.167969 310.253906 263.316406 C 310.996094 263.464844 311.746094 263.574219 312.496094 263.648438 C 313.25 263.722656 314.003906 263.761719 314.761719 263.761719 C 315.515625 263.761719 316.273438 263.722656 317.023438 263.648438 C 317.777344 263.574219 318.523438 263.464844 319.265625 263.316406 C 320.007812 263.167969 320.742188 262.984375 321.464844 262.765625 C 322.1875 262.546875 322.898438 262.292969 323.597656 262.003906 C 324.296875 261.714844 324.980469 261.390625 325.648438 261.035156 C 326.316406 260.675781 326.960938 260.289062 327.589844 259.867188 C 328.21875 259.449219 328.828125 258.996094 329.410156 258.515625 C 329.996094 258.039062 330.554688 257.53125 331.089844 256.996094 C 331.625 256.460938 332.132812 255.898438 332.613281 255.316406 C 333.09375 254.730469 333.542969 254.125 333.964844 253.492188 C 334.382812 252.863281 334.773438 252.214844 335.128906 251.550781 C 335.484375 250.882812 335.808594 250.199219 336.097656 249.5 C 336.386719 248.800781 336.640625 248.089844 336.859375 247.367188 C 337.082031 246.640625 337.265625 245.910156 337.410156 245.167969 C 337.558594 244.425781 337.667969 243.675781 337.742188 242.925781 C 337.816406 242.171875 337.855469 241.417969 337.855469 240.660156 " fill-opacity="1" fill-rule="evenodd"/></svg>